<?xml version="1.0" encoding="utf-8"?>
<!-- Generator: Adobe Illustrator 16.0.0, SVG Export Plug-In . SVG Version: 6.00 Build 0)  -->
<!DOCTYPE svg PUBLIC "-//W3C//DTD SVG 1.1//EN" "http://www.w3.org/Graphics/SVG/1.1/DTD/svg11.dtd">
<svg version="1.1" id="Layer_1" xmlns="http://www.w3.org/2000/svg" xmlns:xlink="http://www.w3.org/1999/xlink" x="0px" y="0px"
	 width="1000.023px" height="164px" viewBox="0 0 1000.023 164" enable-background="new 0 0 1000.023 164" xml:space="preserve">
<g>
	<linearGradient id="SVGID_1_" gradientUnits="userSpaceOnUse" x1="39.0635" y1="142.1133" x2="113.0717" y2="22.9784">
		<stop  offset="0" style="stop-color:#F7931E"/>
		<stop  offset="1" style="stop-color:#F15A24"/>
	</linearGradient>
	<polygon fill="url(#SVGID_1_)" points="146.908,41.492 146.908,122.508 76.639,163.02 65.991,157.084 45.908,145.728 
		45.908,56.614 65.908,45.309 65.908,76.412 88.908,64.119 88.908,30.358 77.136,23.959 25.908,52.977 25.908,111.015 
		33.908,115.938 33.908,138.814 5.908,122.508 5.908,41.492 76.476,0.979 87.403,7.404 106.908,18.77 106.908,106.888 
		88.908,118.202 88.908,86.42 65.908,98.713 65.908,134.131 75.75,140.033 125.908,111.015 125.908,52.977 117.908,48.062 
		117.908,25.186 	"/>
</g>
<g>
	<path fill="#1A1A1A" d="M258.676,38.917h20.037v82.254h-20.037V87.074h-31.753v34.097h-20.036V38.917h20.036v32.925h31.753V38.917z
		"/>
	<path fill="#1A1A1A" d="M324.408,121.171V38.917h20.036v82.254H324.408z"/>
	<path fill="#1A1A1A" d="M411.35,121.171l-29.176-82.254H403.5l20.388,62.687l20.388-62.687h21.326l-29.176,82.254H411.35z"/>
	<path fill="#1A1A1A" d="M555.589,121.171l-4.57-13.826h-29.527l-4.569,13.826h-21.326l28.59-82.488h24.371l28.474,82.488H555.589z
		 M526.531,92.112h19.45l-9.727-29.292L526.531,92.112z"/>
	<path fill="#1A1A1A" d="M635.032,89.183v31.988h-20.036V38.917h32.457c9.529,0,16.95,2.46,22.263,7.381
		c5.312,4.921,7.968,10.859,7.968,17.81c0,4.766-1.446,9.415-4.336,13.944c-2.891,4.532-7.616,7.733-14.178,9.608l20.153,33.511
		h-23.434l-18.513-31.988H635.032z M635.032,54.149v19.802h12.421c3.046,0,5.448-0.897,7.205-2.695
		c1.759-1.795,2.638-4.159,2.638-7.089c0-2.929-0.899-5.332-2.695-7.206c-1.798-1.875-4.18-2.812-7.147-2.812H635.032z"/>
	<path fill="#1A1A1A" d="M721.387,121.171V38.917h20.037v82.254H721.387z"/>
	<path fill="#1A1A1A" d="M786.77,88.013V38.917h20.036v49.096c0,4.921,1.211,8.711,3.633,11.365
		c2.42,2.655,5.976,3.982,10.662,3.982c4.688,0,8.279-1.327,10.78-3.982c2.499-2.654,3.749-6.444,3.749-11.365V38.917h20.037v49.096
		c0,7.265-1.699,13.533-5.097,18.805c-3.398,5.273-7.695,9.122-12.889,11.542c-5.196,2.422-10.839,3.633-16.933,3.633
		c-9.531,0-17.576-2.968-24.137-8.905C790.05,107.15,786.77,98.792,786.77,88.013z"/>
	<path fill="#1A1A1A" d="M994.047,38.917v82.254h-20.036V74.771l-19.101,46.399h-14.88l-19.1-46.399v46.399h-20.037V38.917h22.967
		l23.668,56.711l23.552-56.711H994.047z"/>
</g>
</svg>
